<?xml version="1.0" encoding="utf-8"?>
<svg version="1.1" xmlns="http://www.w3.org/2000/svg" xmlns:xlink="http://www.w3.org/1999/xlink" x="0px" y="0px"
	 width="40px" height="40px" viewBox="0 0 400 400" enable-background="new 0 0 400 400" xml:space="preserve" fill="#d3a478">
<g>
	<path d="M277.7,82.3c0-20.6-8-39.9-22.6-54.5c-14.6-14.5-33.9-22.5-54.5-22.5c-20.6,0-40,8-54.5,22.6c-13.4,13.4-21.2,31-22.3,50
		h-0.2l0,18.4c0,8.9,7.2,16.1,16.4,16.1c4.3,0,8.3-1.7,11.4-4.7c3-3,4.7-7.1,4.7-11.4l0-14.6c0.2-11.7,4.8-22.6,13-30.9
		c8.4-8.4,19.6-13.1,31.5-13.1c11.9,0,23.1,4.6,31.5,13c8.4,8.4,13.1,19.6,13.1,31.5c0,1.6-0.1,3.4-0.3,5.2l3.8,0.5l-3.8,0
		c-0.2,1.7-0.5,3.4-1,5.1c-2,7.9-6,15-11.6,20.7L129,217.2c-3.4,3.4-5.3,7.9-5.3,12.7l0.1,147.3c0,9.9,8.1,17.9,17.9,17.9h0
		l118.1-0.1c9.9,0,17.9-8.1,17.9-18L277.7,82.3z M259.9,387.5l-118.2,0.1c-5.7,0-10.4-4.7-10.4-10.4l-0.1-147.3c0-2.8,1.1-5.4,3-7.3
		l103.2-103.3c6.6-6.6,11.4-15,13.6-24.2c0.5-1.9,0.8-3.9,1.1-5.9l0.1-0.6c0.3-2.2,0.4-4.2,0.4-6.2c0-13.9-5.4-27-15.3-36.9
		c-9.8-9.8-22.9-15.2-36.8-15.2c-13.9,0-27,5.4-36.9,15.3c-9.6,9.6-15,22.4-15.2,36.1l0,14.7c0,2.3-0.9,4.4-2.5,6
		c-1.6,1.6-3.8,2.5-6.3,2.5c-4.7,0-8.5-3.8-8.5-8.5l0-10.9l0-3.7c0.2-18.4,7.4-35.6,20.2-48.5c13.1-13.1,30.6-20.4,49.2-20.4
		c18.5,0,36,7.2,49.1,20.3c13.1,13.1,20.4,30.6,20.4,49.1l0.2,294.8C270.3,382.9,265.7,387.5,259.9,387.5z"/>
	<path d="M192.5,347.1c-0.9-1-2-1.8-3.4-2.4c-1.4-0.6-3.1-0.9-5.1-0.9H171c-2,0-3.7,0.3-5.1,0.9c-1.4,0.6-2.5,1.4-3.4,2.4
		c-0.9,1-1.5,2.2-1.9,3.6c-0.4,1.4-0.6,2.8-0.6,4.4v8.5c0,0.8,0.2,1.5,0.6,2c0.4,0.5,0.8,0.7,1.3,0.7h31.2c0.5,0,1-0.2,1.3-0.7
		c0.4-0.5,0.6-1.2,0.6-2v-8.5c0-1.6-0.2-3-0.6-4.4C194,349.3,193.4,348.1,192.5,347.1z M189.6,360h-24.1v-5c0-1.6,0.5-2.8,1.3-3.7
		c0.9-0.9,2.3-1.3,4.2-1.3H184c1.9,0,3.3,0.4,4.2,1.3c0.9,0.9,1.3,2.1,1.3,3.7V360z"/>
	<path d="M192.8,319.7c-0.9-1-2-1.8-3.4-2.4c-1.4-0.6-3.1-0.9-5.1-0.9H171c-2,0-3.7,0.3-5.1,0.9c-1.4,0.6-2.5,1.4-3.4,2.4
		c-0.9,1-1.5,2.2-1.9,3.6c-0.4,1.4-0.6,2.8-0.6,4.4c0,1.6,0.2,3.1,0.6,4.4c0.4,1.4,1,2.5,1.9,3.5c0.9,1,2,1.8,3.4,2.4
		c1.4,0.6,3.1,0.9,5.1,0.9h13.4c2,0,3.7-0.3,5.1-0.9c1.4-0.6,2.5-1.4,3.4-2.4c0.9-1,1.5-2.2,1.9-3.5c0.4-1.4,0.6-2.8,0.6-4.4
		c0-1.6-0.2-3-0.6-4.4C194.3,321.9,193.7,320.7,192.8,319.7z M188.5,331.3c-0.9,0.9-2.3,1.3-4.2,1.3H171c-1.9,0-3.3-0.4-4.2-1.3
		c-0.9-0.9-1.3-2.1-1.3-3.7c0-1.6,0.4-2.8,1.3-3.7c0.9-0.9,2.3-1.3,4.2-1.3h13.4c1.9,0,3.3,0.4,4.2,1.3c0.9,0.9,1.3,2.1,1.3,3.7
		C189.8,329.3,189.4,330.5,188.5,331.3z"/>
	<path d="M161.6,294.8c-0.4,0.3-0.8,0.6-1,1c-0.2,0.3-0.4,0.7-0.5,1.1c-0.1,0.4-0.1,0.9-0.1,1.5c0,0.8,0.2,1.5,0.5,2.2
		c0.3,0.6,0.8,1,1.5,1h31.1c0.6,0,1.1-0.3,1.5-1c0.3-0.6,0.5-1.4,0.5-2.2c0-0.8-0.2-1.5-0.5-2.1c-0.3-0.7-0.8-1-1.5-1h-19.3
		l19.3-10.3c0.7-0.4,1.2-0.9,1.5-1.6c0.3-0.6,0.4-1.3,0.4-2c0-0.8-0.2-1.5-0.5-2.1c-0.3-0.7-0.8-1-1.5-1h-31.1c-0.7,0-1.2,0.3-1.5,1
		c-0.3,0.7-0.5,1.4-0.5,2.1c0,0.8,0.2,1.5,0.5,2.2c0.3,0.6,0.8,1,1.5,1h19.3l-17.9,9.2C162.6,294.1,162,294.5,161.6,294.8z"/>
	<path d="M192.8,253.7c-0.9-1-2-1.8-3.4-2.4c-1.4-0.6-3.1-0.9-5.1-0.9H171c-2,0-3.7,0.3-5.1,0.9c-1.4,0.6-2.5,1.4-3.4,2.4
		c-0.9,1-1.5,2.2-1.9,3.6c-0.4,1.4-0.6,2.8-0.6,4.4c0,1.6,0.2,3.1,0.6,4.4c0.4,1.4,1,2.5,1.9,3.5c0.9,1,2,1.8,3.4,2.4
		c1.4,0.6,3.1,0.9,5.1,0.9h13.4c2,0,3.7-0.3,5.1-0.9c1.4-0.6,2.5-1.4,3.4-2.4c0.9-1,1.5-2.2,1.9-3.5c0.4-1.4,0.6-2.8,0.6-4.4
		c0-1.6-0.2-3-0.6-4.4C194.3,255.9,193.7,254.7,192.8,253.7z M188.5,265.4c-0.9,0.9-2.3,1.3-4.2,1.3H171c-1.9,0-3.3-0.4-4.2-1.3
		c-0.9-0.9-1.3-2.1-1.3-3.7c0-1.6,0.4-2.8,1.3-3.7c0.9-0.9,2.3-1.3,4.2-1.3h13.4c1.9,0,3.3,0.4,4.2,1.3c0.9,0.9,1.3,2.1,1.3,3.7
		C189.8,263.3,189.4,264.5,188.5,265.4z"/>
	<path d="M160.9,247.5c0.6,0.3,1.2,0.5,1.9,0.5c0.8,0,1.4-0.2,2-0.5c0.6-0.3,0.8-0.8,0.8-1.5v-7h27.4c0.6,0,1.1-0.3,1.5-1
		c0.3-0.6,0.5-1.4,0.5-2.2c0-0.8-0.2-1.5-0.5-2.1c-0.3-0.7-0.8-1-1.5-1h-27.4v-7c0-0.6-0.3-1.1-0.9-1.5c-0.6-0.3-1.2-0.5-2-0.5
		c-0.7,0-1.3,0.2-1.9,0.5c-0.6,0.3-0.9,0.8-0.9,1.5v20.3C160,246.7,160.3,247.2,160.9,247.5z"/>
	<path d="M242.1,347.1c-0.9-1-2-1.8-3.4-2.4c-1.4-0.6-3.1-0.9-5.1-0.9h-13.1c-2,0-3.7,0.3-5.1,0.9c-1.4,0.6-2.5,1.4-3.4,2.4
		c-0.9,1-1.5,2.2-1.9,3.6c-0.4,1.4-0.6,2.8-0.6,4.4v8.5c0,0.8,0.2,1.5,0.6,2c0.4,0.5,0.8,0.7,1.3,0.7h31.2c0.5,0,1-0.2,1.3-0.7
		c0.4-0.5,0.6-1.2,0.6-2v-8.5c0-1.6-0.2-3-0.6-4.4C243.6,349.3,243,348.1,242.1,347.1z M239.1,360H215v-5c0-1.6,0.5-2.8,1.3-3.7
		c0.9-0.9,2.3-1.3,4.2-1.3h13.1c1.9,0,3.3,0.4,4.2,1.3c0.9,0.9,1.3,2.1,1.3,3.7V360z"/>
	<path d="M242.6,332.3h-31.1c-0.7,0-1.2,0.3-1.5,1c-0.3,0.7-0.5,1.4-0.5,2.1c0,0.8,0.2,1.5,0.5,2.2c0.3,0.6,0.8,1,1.5,1h31.1
		c0.6,0,1.1-0.3,1.5-1c0.3-0.6,0.5-1.4,0.5-2.2c0-0.8-0.2-1.5-0.5-2.1C243.8,332.6,243.3,332.3,242.6,332.3z"/>
	<path d="M242.4,309c-0.9-1-1.9-1.8-3.2-2.4c-1.3-0.6-2.8-0.9-4.5-0.9c-2.1,0-3.8,0.4-5.1,1.1c-1.3,0.8-2.4,1.7-3.3,2.8
		c-0.9,1.1-1.6,2.4-2.2,3.7c-0.6,1.3-1.1,2.6-1.6,3.7c-0.5,1.1-1.1,2.1-1.7,2.8c-0.6,0.8-1.4,1.1-2.4,1.1c-1.1,0-2-0.5-2.7-1.4
		c-0.7-0.9-1-2.3-1-4c0-1,0.1-1.8,0.3-2.5c0.2-0.7,0.4-1.3,0.6-1.7c0.2-0.5,0.4-0.9,0.6-1.2c0.2-0.4,0.3-0.7,0.3-1.1
		c0-0.4-0.1-0.8-0.4-1.1c-0.2-0.3-0.5-0.6-0.9-0.8c-0.4-0.2-0.7-0.4-1.1-0.5c-0.4-0.1-0.7-0.1-1-0.1c-0.8,0-1.4,0.3-1.9,1
		c-0.5,0.7-0.9,1.5-1.2,2.5c-0.3,1-0.5,2-0.6,3c-0.1,1-0.1,1.9-0.1,2.6c0,1.4,0.2,2.8,0.5,4.1c0.3,1.4,0.9,2.6,1.6,3.7
		c0.7,1.1,1.7,2,2.9,2.7c1.2,0.7,2.7,1.1,4.5,1.1c1.9,0,3.4-0.4,4.6-1.1c1.2-0.8,2.2-1.7,3-2.8c0.8-1.1,1.5-2.4,2-3.7
		c0.5-1.3,1.1-2.6,1.7-3.7c0.6-1.1,1.3-2.1,2-2.8c0.8-0.8,1.7-1.2,2.9-1.2c1.4,0,2.5,0.5,3.2,1.6c0.7,1.1,1,2.3,1,3.8
		c0,1.2-0.2,2.2-0.6,3c-0.4,0.8-0.8,1.5-1.3,2.1c-0.5,0.6-0.9,1.1-1.3,1.6c-0.4,0.5-0.6,0.9-0.6,1.4c0,0.4,0.1,0.7,0.3,1.1
		c0.2,0.3,0.5,0.6,0.8,0.9c0.3,0.3,0.7,0.5,1.1,0.6c0.4,0.1,0.8,0.2,1.1,0.2c0.7,0,1.4-0.3,2.1-0.8c0.7-0.6,1.3-1.3,1.9-2.3
		c0.6-1,1-2.2,1.4-3.5c0.4-1.4,0.5-2.8,0.5-4.4c0-1.7-0.2-3.2-0.7-4.6C243.9,311.2,243.2,310,242.4,309z"/>
	<path d="M210.5,303.3c0.6,0.3,1.2,0.5,1.9,0.5c0.8,0,1.4-0.2,2-0.5c0.6-0.3,0.8-0.8,0.8-1.5v-7h27.4c0.6,0,1.1-0.3,1.5-1
		c0.3-0.6,0.5-1.4,0.5-2.2c0-0.8-0.2-1.5-0.5-2.1c-0.3-0.7-0.8-1-1.5-1h-27.4v-7c0-0.6-0.3-1.1-0.9-1.5c-0.6-0.3-1.2-0.5-2-0.5
		c-0.7,0-1.3,0.2-1.9,0.5c-0.6,0.3-0.9,0.8-0.9,1.5v20.3C209.6,302.5,209.9,303,210.5,303.3z"/>
	<path d="M233.9,270.2h-22.4c-0.7,0-1.2,0.3-1.5,1c-0.3,0.7-0.5,1.4-0.5,2.1c0,0.8,0.2,1.5,0.5,2.2c0.3,0.6,0.8,1,1.5,1h22.4
		c2,0,3.7-0.3,5.1-0.9c1.4-0.6,2.5-1.4,3.4-2.4c0.9-1,1.5-2.3,1.9-3.6c0.4-1.4,0.6-2.9,0.6-4.5c0-1.6-0.2-3.1-0.6-4.5
		c-0.4-1.4-1-2.6-1.9-3.7c-0.9-1-2-1.9-3.4-2.4c-1.4-0.6-3.1-0.9-5.1-0.9h-22.4c-0.7,0-1.2,0.3-1.5,1c-0.3,0.7-0.5,1.4-0.5,2.1
		c0,0.8,0.2,1.5,0.5,2.2c0.3,0.6,0.8,1,1.5,1h22.4c1.9,0,3.3,0.5,4.2,1.4c0.9,0.9,1.3,2.2,1.3,3.9c0,1.7-0.4,3-1.3,3.9
		C237.2,269.7,235.8,270.2,233.9,270.2z"/>
	<path d="M211.5,247.8h31.1c0.6,0,1.1-0.3,1.5-1c0.3-0.7,0.5-1.4,0.5-2.1c0-0.8-0.2-1.5-0.5-2.2c-0.3-0.6-0.8-1-1.5-1h-12.5v-4
		l13.2-6.8c0.5-0.3,0.8-0.6,1.1-0.9c0.3-0.4,0.4-0.8,0.4-1.2c0-0.4-0.1-0.9-0.3-1.4c-0.2-0.5-0.4-0.9-0.7-1.2
		c-0.3-0.4-0.7-0.7-1.1-0.9c-0.4-0.2-0.8-0.4-1.2-0.4c-0.1,0-0.2,0-0.4,0c-0.1,0-0.3,0.1-0.4,0.2l-11.6,6.3
		c-0.5-1.8-1.6-3.3-3.1-4.5c-1.5-1.2-3.7-1.8-6.4-1.8c-1.9,0-3.5,0.3-4.8,0.9c-1.3,0.6-2.3,1.4-3.1,2.4c-0.8,1-1.3,2.2-1.7,3.6
		c-0.3,1.4-0.5,2.8-0.5,4.4v9.5c0,0.6,0.2,1.1,0.6,1.5C210.5,247.6,211,247.8,211.5,247.8z M215,236.3c0-1.6,0.4-2.8,1.2-3.7
		c0.8-0.9,2.1-1.4,4-1.4c1.9,0,3.2,0.5,3.9,1.4c0.8,0.9,1.1,2.2,1.1,3.7v5.3H215V236.3z"/>
	<path d="M211.5,220.5h31.1c0.5,0,1-0.2,1.3-0.7c0.4-0.5,0.6-1.2,0.6-2v-10.2c0-1.3-0.2-2.6-0.5-3.8c-0.3-1.2-0.9-2.2-1.7-3
		c-0.8-0.9-1.9-1.5-3.1-2c-1.3-0.5-2.9-0.7-4.7-0.7h-1c-1.2,0-2.2,0.1-3.1,0.4c-0.9,0.2-1.6,0.6-2.2,1c-0.6,0.4-1.1,1-1.5,1.6
		c-0.4,0.6-0.7,1.3-1,2c-0.5-1.3-1.5-2.3-2.7-3c-1.3-0.7-2.9-1.1-4.9-1.1c-1.7,0-3.1,0.3-4.2,0.8c-1.1,0.5-2,1.3-2.6,2.1
		c-0.6,0.9-1.1,1.9-1.3,3.1c-0.2,1.2-0.4,2.4-0.4,3.6v9.2c0,0.7,0.2,1.3,0.5,1.9C210.4,220.2,210.9,220.5,211.5,220.5z M228.1,208.9
		c0-1.5,0.4-2.6,1.1-3.4c0.7-0.8,2.1-1.2,3.9-1.2h0.8c1.8,0,3.1,0.4,4,1.2c0.8,0.8,1.2,2,1.2,3.4v5.4h-11.1V208.9z M215,209
		c0-1.2,0.4-2.2,1.1-2.8c0.7-0.7,1.7-1,2.9-1c1.2,0,2.2,0.3,3,0.9c0.8,0.6,1.1,1.6,1.1,2.9v5.4H215V209z"/>
</g>
</svg>
