<?xml version="1.0" encoding="utf-8"?>
<!-- Generator: Adobe Illustrator 17.1.0, SVG Export Plug-In . SVG Version: 6.00 Build 0)  -->
<!DOCTYPE svg PUBLIC "-//W3C//DTD SVG 1.1//EN" "http://www.w3.org/Graphics/SVG/1.1/DTD/svg11.dtd">
<svg version="1.1" id="Layer_1" xmlns="http://www.w3.org/2000/svg" xmlns:xlink="http://www.w3.org/1999/xlink" x="0px" y="0px"
	 width="400px" height="400px" viewBox="0 0 400 400" enable-background="new 0 0 400 400" xml:space="preserve">
<g>
	<path d="M12.4,362.5H70c4.1,0,7.4-3.3,7.4-7.4v-55h246.5v55c0,4.1,3.3,7.4,7.3,7.4h57.6c4.1,0,7.4-3.3,7.4-7.4V224.5
		c0-0.4,0-0.7-0.1-1.1v-13.7V56c0-9.7-7.9-17.6-17.6-17.6H22.7C13,38.4,5,46.3,5,56v168.4v130.7C5,359.2,8.3,362.5,12.4,362.5z
		 M171.1,157.6H71.6V103h99.5V157.6z M57.5,172.3h6.8h114.2h39.7h114.2h11.5c20.7,0,37.5,16.8,37.5,37.5v7.4H20v-7.4
		C20,189.1,36.8,172.3,57.5,172.3z M325,157.6h-99.5V103H325V157.6z M381.5,347.8h-42.9v-55c0-4.1-3.3-7.4-7.4-7.4H70
		c-4.1,0-7.4,3.3-7.4,7.4v55H19.7V231.8h361.7V347.8z M22.7,53.1h355.8c1.6,0,2.9,1.3,2.9,2.9v117.4c-9.5-9.8-22.8-15.9-37.5-15.9
		h-4.2V95.7c0-4.1-3.3-7.4-7.4-7.4H218.2c-4.1,0-7.4,3.3-7.4,7.4v61.9h-25V95.7c0-4.1-3.3-7.4-7.4-7.4H64.3c-4.1,0-7.4,3.3-7.4,7.4
		v61.9c-14.6,0.1-27.8,6.3-37.2,16.2V56C19.7,54.4,21.1,53.1,22.7,53.1z"/>
</g>
</svg>
