<?xml version="1.0" encoding="utf-8"?>
<!-- Generator: Adobe Illustrator 17.1.0, SVG Export Plug-In . SVG Version: 6.00 Build 0)  -->
<!DOCTYPE svg PUBLIC "-//W3C//DTD SVG 1.1//EN" "http://www.w3.org/Graphics/SVG/1.1/DTD/svg11.dtd">
<svg version="1.1" id="Layer_1" xmlns="http://www.w3.org/2000/svg" xmlns:xlink="http://www.w3.org/1999/xlink" x="0px" y="0px"
	 width="400px" height="400px" viewBox="0 0 400 400" enable-background="new 0 0 400 400" xml:space="preserve">
<g>
	<path d="M337,293.4c-12.2,0-23.3,4.2-32.2,11.3l-51.2-51.2h81.4c16.7,0,31.1-11.3,35.2-27.5l18.5-73.9c0.1-0.5,0.1-1,0-1.6
		c0.1,0,0.1-0.1,0.1-0.1c-0.8-40.6-17.8-77.4-44.9-103.9c-0.1-0.1-0.1-0.3-0.2-0.4c-0.1-0.1-0.3-0.2-0.4-0.3
		c-27-26.1-63.7-42.3-104.1-42.3c-3.3,0-6,2.7-6,6v117.9c-8.5,2.2-15.1,8.8-17.3,17.3h-71.1L95.8,95.6c-1.1-1.1-2.6-1.8-4.2-1.8
		H17.4c-3.3,0-6,2.7-6,6s2.7,6,6,6h71.6l39,39H95.6c-1.8,0-3.6,0.9-4.7,2.3c-1.1,1.4-1.5,3.3-1.1,5.1l18.5,73.9
		c4,16.2,18.5,27.5,35.2,27.5h81.5l-51.2,51.2c-8.9-7-20-11.3-32.2-11.3c-28.6,0-51.9,23.3-51.9,51.9c0,28.6,23.3,51.9,51.9,51.9
		c26.6,0,48.6-20.1,51.5-46h92.5c3,25.8,24.9,46,51.5,46c28.6,0,51.9-23.3,51.9-51.9C389,316.7,365.7,293.4,337,293.4z M285.5,339.3
		H193c-1.1-9.8-5-18.8-10.9-26.2l57.1-57.1l57.1,57.1C290.5,320.5,286.6,329.5,285.5,339.3z M376.7,144.7H262.6
		c-0.6-2.2-1.5-4.3-2.6-6.3l79.5-79.5C360.9,81.7,374.6,111.6,376.7,144.7z M330.9,50.6L251.5,130c-1.9-1.1-4-2-6.3-2.6V15.6
		C278.1,17,307.9,30.1,330.9,50.6z M239.3,138.5c6.7,0,12.2,5.5,12.2,12.2c0,6.7-5.5,12.2-12.2,12.2c-6.7,0-12.2-5.5-12.2-12.2
		C227.1,144,232.6,138.5,239.3,138.5z M216,156.7c2.7,10.4,12.1,18.1,23.3,18.1c11.2,0,20.6-7.7,23.3-18.1h112.8l-16.6,66.5
		c-2.7,10.9-12.4,18.5-23.6,18.5h-93.4l-84.9-84.9H216z M119.8,223.1l-16.6-66.5H140l84.9,84.9h-81.5
		C132.2,241.6,122.5,234,119.8,223.1z M141.5,385.3c-22,0-40-17.9-40-40c0-22.1,17.9-40,40-40c8.9,0,17.1,3,23.7,7.9l-27.9,27.9
		c-2.3,2.3-2.3,6.1,0,8.4c2.3,2.3,6.1,2.3,8.4,0l27.9-27.9c4.9,6.6,7.8,14.8,7.8,23.7C181.5,367.4,163.6,385.3,141.5,385.3z
		 M337,385.3c-22,0-40-17.9-40-40c0-8.9,3-17,7.9-23.7l27.9,27.9c1.2,1.2,2.7,1.8,4.2,1.8c1.5,0,3-0.6,4.2-1.8
		c2.3-2.3,2.3-6.1,0-8.4l-27.9-27.9c6.6-4.9,14.8-7.9,23.7-7.9c22,0,40,17.9,40,40C377,367.4,359.1,385.3,337,385.3z"/>
</g>
</svg>
