<?xml version="1.0" encoding="utf-8"?>

<svg version="1.1" xmlns="http://www.w3.org/2000/svg" xmlns:xlink="http://www.w3.org/1999/xlink" x="0px" y="0px"
	 width="70px" height="70px" viewBox="0 0 400 400" enable-background="new 0 0 400 400" xml:space="preserve" fill="#d3a478">
<g>
	<path d="M95.7,56.8l18.7,10.3v35.8h15.4c10.8,19.4,36.5,31.3,68,31.3l1.7,0l1.8,0h0c31.5,0,57.2-11.9,68-31.3h16.7V67.1l19.7-10.9
		c4.7-2.6,7.6-7.5,7.6-12.9c0-5.4-2.8-10.1-7.4-12.7C272.9,12.5,238.7,3.3,204.1,3.3c-34.8,0-71.1,9.3-107.9,27.6
		c-4.8,2.4-7.9,7.2-8,12.7C88,49.1,90.9,54.1,95.7,56.8z M201.2,126.3l-1.8,0l-1.7,0c-21,0-46.3-6.2-58.6-23.3h120.6
		C247.5,120,222.2,126.3,201.2,126.3z M277.8,95h-4.7H125.8h-3.4V68.8h155.5V95z M99.7,38.1c35.7-17.8,70.8-26.8,104.4-26.8
		c33.3,0,66.2,8.9,97.7,26.4c2.1,1.1,3.3,3.3,3.3,5.7c0,2.5-1.3,4.7-3.5,5.9l-20.8,11.5H119.4l-19.8-11c-2.2-1.2-3.5-3.5-3.5-6
		C96.2,41.3,97.5,39.2,99.7,38.1z"/>
	<circle cx="173" cy="380.5" r="4"/>
	<circle cx="227.5" cy="380.5" r="4"/>
	<path d="M276.3,171.4c1.4-0.1,2.7-0.3,4-0.9c8-3,11-12.4,13.1-25.6c3.1-19-0.6-30.8-10.1-32.4c-0.4-0.1-0.7-0.1-1.1-0.1V109h-8
		v13.8l5.4-2c0.9-0.3,1.7-0.4,2.4-0.3c4.1,0.7,5.6,10.4,3.5,23.2c-1.3,8.1-3.4,17.6-8.1,19.4c-0.8,0.3-1.6,0.4-2.3,0.3l-5-1.7
		l-0.9,4.4c-2.3,10.8-5.1,19.8-8.3,27l7.8,2C271.7,188.4,274.2,180.5,276.3,171.4z"/>
	<path d="M118.4,120.4c0.7-0.1,1.5,0,2.4,0.3l5.4,2V109h-8v3.4c-0.4,0-0.7,0.1-1.1,0.1c-9.5,1.5-13.2,13.4-10.1,32.4
		c2.1,13.2,5.2,22.6,13.1,25.6c1.3,0.5,2.7,0.8,4.1,0.9c2.1,9.2,4.6,17,7.4,23.6l7.8-2c-3.2-7.1-6-16.1-8.3-27l-0.9-4.4l-4.2,1.4
		l-0.7,0.2c-0.7,0.1-1.5,0-2.3-0.3c-4.7-1.8-6.8-11.3-8.1-19.4C112.8,130.8,114.3,121.1,118.4,120.4z"/>
	<path d="M186.5,235.8H214c8,0,14.5-6.5,14.5-14.5c0-8-6.5-14.5-14.5-14.5h-27.6c-8,0-14.5,6.5-14.5,14.5
		C172,229.3,178.5,235.8,186.5,235.8z M186.5,215.9H214c3,0,5.4,2.4,5.4,5.4c0,3-2.4,5.4-5.4,5.4h-27.6c-3,0-5.4-2.4-5.4-5.4
		C181,218.3,183.5,215.9,186.5,215.9z"/>
	<path d="M181.1,281.8h38.4c24.7,0,44.7-22.5,44.7-50.1V202l-38.5-9.7c-16.4-4.2-33.8-4.2-50.2-0.1l-39.1,9.8v29.7
		C136.4,259.4,156.4,281.8,181.1,281.8z M144.3,208.3l33.1-8.3c15.1-3.8,31.2-3.8,46.3,0.1l32.4,8.2v23.5
		c0,23.2-16.5,42.1-36.7,42.1h-38.4c-20.3,0-36.7-18.9-36.7-42.1V208.3z"/>
	<path d="M329.9,290.7l-32.2-14.5c-0.1,0.9-0.2,1.8-0.5,2.7l-1.7,5l31.6,14.2c19.5,6.4,32.6,24.5,32.6,45v46.1H305v-24.1
		c0-2.2-1.8-4-4-4s-4,1.8-4,4v24.1h-92.2v-22.4l58.8-34.1c1-0.6,1.7-1.5,1.9-2.6c0.2-1.1,0-2.3-0.7-3.2l-11.5-15.8l19.8,3.6
		c2,0.3,3.9-0.8,4.5-2.7l12-35.7c0.6-1.8-0.1-3.8-1.8-4.7l-22-12.9c-0.4,0.8-0.7,1.7-1.2,2.5c-0.8,1.5-1.8,3-2.8,4.4l19.1,11.2
		l-9.8,29.4l-26.2-4.8c-1.6-0.3-3.2,0.4-4.1,1.8c-0.9,1.4-0.8,3.1,0.1,4.5l14.7,20.3l-51,29.5v-39.9l20-28.2
		c-1.8,0.2-3.5,0.3-5.3,0.3h-4.7l-14.4,20.3h0L186,289.8h-4.9c-1.7,0-3.4-0.1-5.1-0.3l19.7,27.9v40.2l-50.8-29.5l14.7-20.3
		c1-1.3,1-3.1,0.1-4.5c-0.9-1.4-2.6-2.1-4.2-1.7l-26.1,5.3l-9.8-29.9l18.9-11.1c-1-1.5-2-2.9-2.8-4.5c-0.4-0.8-0.7-1.6-1.1-2.4
		l-21.8,12.8c-1.6,1-2.4,2.9-1.8,4.7l12,36.4c0.6,1.9,2.6,3.1,4.6,2.7l19.5-4l-11.3,15.5c-0.7,0.9-0.9,2.1-0.7,3.2
		c0.2,1.1,0.9,2.1,1.9,2.6l58.6,34.1v22.4h-92.2v-24.1c0-2.2-1.8-4-4-4c-2.2,0-4,1.8-4,4v24.1H40.9v-46.1c0-20.5,13.1-38.5,33-45.1
		l31.3-14.1l-1.7-5c-0.3-0.9-0.4-1.8-0.5-2.7L71,290.6c-22.8,7.5-38,28.6-38,52.5v50.1c0,2.2,1.8,4,4,4h326.7c2.2,0,4-1.8,4-4v-50.1
		C367.6,319.2,352.3,298.1,329.9,290.7z"/>
</g>
</svg>
