<?xml version="1.0" encoding="utf-8"?>
<svg version="1.1" xmlns="http://www.w3.org/2000/svg" xmlns:xlink="http://www.w3.org/1999/xlink" x="0px" y="0px"
	 width="40px" height="40px" viewBox="0 0 400 400" enable-background="new 0 0 400 400" xml:space="preserve" fill="#d3a478">
<g>
	<path d="M27.5,163.3c3.1,3,7.2,4.7,11.6,4.7c4.5,0,8.7-1.8,11.9-5l7.4-7.6c5.6,1.3,11.6-0.4,15.7-4.6l15.9-16.4l11.2-11.3l-9.3-0.5
		L69.1,146c-2.7,2.8-7,3.7-10.5,2.3c-1.3-0.5-2.7-0.2-3.7,0.8l-8.8,9.1c-3.6,3.7-9.8,4-14,0c-0.9-0.9-1.6-1.9-2.1-3.1
		c-0.5-1.3-1.8-2.1-3.1-2.1c-0.1,0-0.1,0-0.2,0l-0.6,0c-3.4,0-6.6-1.6-8.8-4.5c-0.4-0.6-0.8-1.2-1.1-1.9c-2.8-0.6-5.4-1.7-7.8-3.2
		c0.3,3.3,1.5,6.5,3.7,9.4c3.1,4.1,7.7,6.6,12.8,6.9C25.4,161,26.3,162.2,27.5,163.3z"/>
	<path d="M136.3,71.8c-1.2,0-2.3-0.1-3.4-0.1c-2.5-0.1-4.7-0.2-6.5,0c-13.2,1.1-53.7,8-55.4,8.3l0,0c-1.7,0.5-9.1,4-57.7,26.7
		c-8.7,4.3-12.3,15-7.8,24c3,6.1,9.1,9.8,15.9,9.8c2.7,0,5.4-0.6,7.9-1.9l46.2-23l50.8,0.5l19.6,7l-36.1,5.3
		c-9.7,1.1-16.7,10-15.5,19.9c1,8.9,8.6,15.6,17.6,15.6c0.7,0,1.4,0,2.1-0.1l66.4-9c2.4-0.3,4.8-0.1,7.1,0.4l22,4.8
		c8.7,1.9,17.9,2.2,26.7,0.9l6.5-0.9l0-6.9l-7.5,1.1c-8.1,1.2-16.4,0.9-24.3-0.9l-22-4.8c-3.1-0.7-6.1-0.9-9.5-0.5l-66.4,9
		c-6,0.7-11.4-3.6-12.1-9.8c-0.7-6,3.6-11.4,9.6-12.1l49.8-7.3c1.6-0.2,2.7-1.5,2.9-3c0.2-1.6-0.8-3-2.3-3.6L128,109.5
		c-0.4-0.1-0.7-0.2-1.1-0.2l-52.2-0.5c0,0,0,0,0,0c-0.5,0-1,0.1-1.5,0.4l-46.9,23.3c-5.3,2.6-11.9,0.4-14.7-5.2
		c-2.7-5.4-0.5-11.9,4.8-14.5C31,106,68.6,88.5,72.6,86.6c4.4-0.7,42.1-7.2,54.4-8.2c1.5-0.1,3.5,0,5.6,0.1c1.1,0,2.3,0.1,3.5,0.1
		c12.2,0.3,54.5,2,87.7,13.5c0.2,0.1,0.4,0.1,0.5,0.1l18.7,3.2l0-6.9l-17.3-2.9C192.6,74.2,152.2,72.2,136.3,71.8z"/>
	<path d="M393.5,75.5H289.8c-1.9,0-3.4,1.5-3.4,3.4v90.6c0,1.9,1.5,3.4,3.4,3.4h103.7c1.9,0,3.4-1.5,3.4-3.4V78.9
		C396.9,77,395.4,75.5,393.5,75.5z M390.1,166.1h-96.9V82.3h96.9V166.1z"/>
	<path d="M253.3,80.4c-1.9,0-3.4,1.5-3.4,3.4l-0.5,80.6c0,0.9,0.3,1.8,1,2.4c0.6,0.6,1.5,1,2.4,1l26.7,0.2v-6.8l-23.3-0.1l0.5-73.7
		l22.8,0.1v-6.8L253.3,80.4C253.3,80.4,253.3,80.4,253.3,80.4z"/>
	<path d="M205.4,303.1v-11.8c0-2.1-1.7-3.9-3.9-3.9H40.9c-2.1,0-3.9,1.7-3.9,3.9v11.8c-5.5,2.9-18.6,11-18.6,21.7
		c0,2.1,1.7,3.9,3.9,3.9h197.7c2.1,0,3.9-1.9,3.9-4.1C224,314,210.9,306,205.4,303.1z M27.4,320.9c3.1-5.3,11.7-10.3,15.2-11.9
		c1.4-0.6,2.3-2,2.3-3.5v-10.3h152.8v10.3c0,1.5,0.9,2.9,2.3,3.5c4.3,2,12.2,6.9,15.1,11.9H27.4z"/>
	<path d="M139.4,200.4c2.1,0,3.9-1.9,3.9-4.1c0-11.9-9.7-21.6-21.6-21.6h-0.9c-11.9,0-21.6,9.7-21.6,21.7c0,2.1,1.7,3.9,3.9,3.9
		H139.4z M120.8,182.5h0.9c6.3,0,11.7,4.3,13.3,10.1h-27.5C109.1,186.8,114.5,182.5,120.8,182.5z"/>
	<path d="M40.1,277.1c0,2.1,1.7,3.9,3.9,3.9h154.6c2.1,0,3.9-1.7,3.9-3.9c0-53.4-43.6-72.4-81-72.4l-0.8,0
		C80.5,204.9,40.1,227.4,40.1,277.1z M120.7,212.4l0.7,0c32.8,0,71,16,73.1,60.7H47.9C50,228.8,88,212.7,120.7,212.4z"/>
	<path d="M56.8,269.5c0.2,0,0.5,0.1,0.7,0.1c1.8,0,3.4-1.3,3.8-3.1c3.9-20.1,18.6-30.8,30.2-36.3c1.9-0.9,2.8-3.2,1.9-5.2
		c-0.9-1.9-3.2-2.8-5.2-1.9c-19,8.9-31,23.4-34.6,41.8C53.4,267,54.7,269.1,56.8,269.5z"/>
	<path d="M190.5,302H52c-2.1,0-3.9,1.7-3.9,3.9c0,2.1,1.7,3.9,3.9,3.9h138.5c2.1,0,3.9-1.7,3.9-3.9C194.4,303.8,192.6,302,190.5,302
		z"/>
</g>
</svg>
