<?xml version="1.0" encoding="utf-8"?>
<svg version="1.1" xmlns="http://www.w3.org/2000/svg" xmlns:xlink="http://www.w3.org/1999/xlink" x="0px" y="0px"
	 width="40px" height="40px" viewBox="0 0 400 400" enable-background="new 0 0 400 400" xml:space="preserve" fill="#d3a478">
<g>
	<path d="M1.6,311.5h23V133.2h-23V311.5z M8.1,139.7h10V305h-10V139.7z"/>
	<path d="M376.8,88v223.5h22.1V88H376.8z M392.4,305h-9.1V94.5h9.1V305z"/>
	<rect x="31.1" y="180.7" width="339.2" height="6.5"/>
	<path d="M297.7,133.4l-1.8,0c-38.6,0.8-68.7,28.9-70,30.1l-3.2,3l3.8,2.2c0,0,1.2,0.7,3.4,1.8c1.9,1,4.7,2.3,8.1,3.7h19.2
		c-3.7-1.1-7-2.2-9.9-3.3c-2.5-0.9-4.7-1.8-6.7-2.6c-2.6-1.1-4.9-2.1-6.6-3c8.9-7.2,33.3-24.7,62.1-25.3l1.6,0
		c28.2,0,52.8,16.1,61.7,22.7c-5.3,3-14.5,7.8-26.5,11.6h18c5.6-2.5,9.9-4.9,12.8-6.6c2-1.2,3.1-1.9,3.1-1.9l3.5-2.4l-3.2-2.8
		C365.9,159.4,335.5,133.4,297.7,133.4z"/>
	<rect x="31.1" y="251.8" width="339.2" height="6.5"/>
	<rect x="31.1" y="224.6" width="339.2" height="6.5"/>
	<path d="M62.2,175.5h85.3c2,0,3.7-1.6,3.7-3.7c0-2-1.6-3.7-3.7-3.7H62.2c-2,0-3.7,1.6-3.7,3.7C58.6,173.9,60.2,175.5,62.2,175.5z"
		/>
	<path d="M62.2,162.8h85.3c2,0,3.7-1.6,3.7-3.7c0-2-1.6-3.7-3.7-3.7H62.2c-2,0-3.7,1.6-3.7,3.7C58.6,161.2,60.2,162.8,62.2,162.8z"
		/>
	<path d="M62.2,150.1h85.3c2,0,3.7-1.6,3.7-3.7s-1.6-3.7-3.7-3.7H62.2c-2,0-3.7,1.6-3.7,3.7S60.2,150.1,62.2,150.1z"/>
</g>
</svg>
