<?xml version="1.0" encoding="utf-8"?>
<!-- Generator: Adobe Illustrator 17.1.0, SVG Export Plug-In . SVG Version: 6.00 Build 0)  -->
<!DOCTYPE svg PUBLIC "-//W3C//DTD SVG 1.1//EN" "http://www.w3.org/Graphics/SVG/1.1/DTD/svg11.dtd">
<svg version="1.1" id="Layer_1" xmlns="http://www.w3.org/2000/svg" xmlns:xlink="http://www.w3.org/1999/xlink" x="0px" y="0px"
	 width="400px" height="400px" viewBox="0 0 400 400" enable-background="new 0 0 400 400" xml:space="preserve">
<g>
	<path d="M48.7,213.7h3h297.6h3c24.4,0,44.2-19.8,44.2-44.2V63.5c0-4.1-3.3-7.4-7.4-7.4H11.9c-4.1,0-7.4,3.3-7.4,7.4v106.1
		C4.6,193.9,24.4,213.7,48.7,213.7z M59.1,199v-11.5h282.9V199H59.1z M19.3,70.9h362.4v98.7c0,14.7-10.9,27-25,29.1v-18.5
		c0-4.1-3.3-7.4-7.4-7.4H51.7c-4.1,0-7.4,3.3-7.4,7.4v18.5c-14.2-2.1-25-14.4-25-29.1V70.9z"/>
	<path d="M299,153.2c4.3,0,7.8-3.5,7.8-7.8c0-4.3-3.5-7.8-7.8-7.8c-4.3,0-7.8,3.5-7.8,7.8C291.1,149.6,294.6,153.2,299,153.2z"/>
	<path d="M323.4,153c4.3,0,7.8-3.5,7.8-7.8c0-4.3-3.5-7.8-7.8-7.8c-4.3,0-7.8,3.5-7.8,7.8C315.6,149.5,319.1,153,323.4,153z"/>
	<path d="M348.8,153c4.3,0,7.8-3.5,7.8-7.8c0-4.3-3.5-7.8-7.8-7.8c-4.3,0-7.8,3.5-7.8,7.8C341,149.5,344.5,153,348.8,153z"/>
	<path d="M149.3,152.6h102.4c4.1,0,7.4-3.3,7.4-7.4c0-4.1-3.3-7.4-7.4-7.4H149.3c-4.1,0-7.4,3.3-7.4,7.4
		C141.9,149.3,145.2,152.6,149.3,152.6z"/>
	<path d="M90.8,241.6c0-4.1-3.3-7.4-7.4-7.4c-4.1,0-7.4,3.3-7.4,7.4c0,3.2-1,4.4-3.3,7c-2.9,3.4-7,8-7,16.7c0,8.7,4,13.3,7,16.7
		c2.3,2.7,3.3,3.9,3.3,7c0,3.2-1.1,4.4-3.4,7c-2.9,3.4-7,8-7,16.7c0,8.7,4,13.3,7,16.7c2.3,2.7,3.4,3.9,3.4,7c0,4.1,3.3,7.4,7.4,7.4
		c4.1,0,7.4-3.3,7.4-7.4c0-8.7-4-13.3-7-16.7c-2.3-2.6-3.4-3.9-3.4-7c0-3.2,1.1-4.4,3.4-7c2.9-3.4,7-8,7-16.7c0-8.7-4-13.3-7-16.7
		c-2.3-2.6-3.4-3.9-3.4-7c0-3.2,1.1-4.4,3.4-7C86.7,254.9,90.8,250.3,90.8,241.6z"/>
	<path d="M149.8,241.6c0-4.1-3.3-7.4-7.4-7.4c-4.1,0-7.4,3.3-7.4,7.4c0,3.2-1,4.4-3.3,7c-2.9,3.4-7,8-7,16.7c0,8.7,4,13.3,7,16.7
		c2.3,2.7,3.3,3.9,3.3,7c0,3.2-1,4.4-3.3,7c-2.9,3.4-7,8-7,16.7c0,8.7,4,13.3,7,16.7c2.3,2.7,3.3,3.9,3.3,7c0,4.1,3.3,7.4,7.4,7.4
		c4.1,0,7.4-3.3,7.4-7.4c0-8.7-4-13.3-7-16.7c-2.3-2.6-3.4-3.9-3.4-7c0-3.2,1.1-4.4,3.4-7c2.9-3.4,7-8,7-16.7c0-8.7-4-13.3-7-16.7
		c-2.3-2.6-3.4-3.9-3.4-7c0-3.2,1.1-4.4,3.4-7C145.8,254.9,149.8,250.3,149.8,241.6z"/>
	<path d="M208.8,241.6c0-4.1-3.3-7.4-7.4-7.4c-4.1,0-7.4,3.3-7.4,7.4c0,3.2-1,4.4-3.4,7c-2.9,3.4-7,8-7,16.7c0,8.7,4,13.3,7,16.7
		c2.3,2.7,3.4,3.9,3.4,7c0,3.2-1,4.4-3.4,7c-2.9,3.4-7,8-7,16.7c0,8.7,4,13.3,7,16.7c2.3,2.7,3.4,3.9,3.4,7c0,4.1,3.3,7.4,7.4,7.4
		c4.1,0,7.4-3.3,7.4-7.4c0-8.7-4-13.3-7-16.7c-2.3-2.6-3.4-3.9-3.4-7c0-3.2,1.1-4.4,3.4-7c2.9-3.4,7-8,7-16.7c0-8.7-4-13.3-7-16.7
		c-2.3-2.6-3.4-3.9-3.4-7c0-3.2,1.1-4.4,3.4-7C204.8,254.9,208.8,250.3,208.8,241.6z"/>
	<path d="M267.9,241.6c0-4.1-3.3-7.4-7.4-7.4c-4.1,0-7.4,3.3-7.4,7.4c0,3.2-1.1,4.4-3.4,7c-2.9,3.4-7,8-7,16.7c0,8.7,4,13.3,7,16.7
		c2.3,2.7,3.4,3.9,3.4,7c0,3.2-1.1,4.4-3.4,7c-2.9,3.4-7,8-7,16.7c0,8.7,4,13.3,7,16.7c2.3,2.7,3.4,3.9,3.4,7c0,4.1,3.3,7.4,7.4,7.4
		c4.1,0,7.4-3.3,7.4-7.4c0-8.7-4-13.3-7-16.7c-2.3-2.6-3.4-3.9-3.4-7c0-3.2,1.1-4.4,3.4-7c2.9-3.4,7-8,7-16.7c0-8.7-4-13.3-7-16.7
		c-2.3-2.6-3.4-3.9-3.4-7c0-3.2,1.1-4.4,3.4-7C263.9,254.9,267.9,250.3,267.9,241.6z"/>
	<path d="M326.9,241.6c0-4.1-3.3-7.4-7.4-7.4c-4.1,0-7.4,3.3-7.4,7.4c0,3.2-1.1,4.4-3.4,7c-2.9,3.4-7,8-7,16.7c0,8.7,4,13.3,7,16.7
		c2.3,2.7,3.4,3.9,3.4,7c0,3.2-1.1,4.4-3.4,7c-2.9,3.4-7,8-7,16.7c0,8.7,4,13.3,7,16.7c2.3,2.7,3.4,3.9,3.4,7c0,4.1,3.3,7.4,7.4,7.4
		c4.1,0,7.4-3.3,7.4-7.4c0-8.7-4-13.3-7-16.7c-2.3-2.6-3.4-3.9-3.4-7c0-3.2,1-4.4,3.4-7c2.9-3.4,7-8,7-16.7c0-8.7-4-13.3-7-16.7
		c-2.3-2.6-3.4-3.9-3.4-7c0-3.2,1-4.4,3.4-7C322.9,254.9,326.9,250.3,326.9,241.6z"/>
</g>
</svg>
