<?xml version="1.0" encoding="utf-8"?>
<!-- Generator: Adobe Illustrator 17.1.0, SVG Export Plug-In . SVG Version: 6.00 Build 0)  -->
<!DOCTYPE svg PUBLIC "-//W3C//DTD SVG 1.1//EN" "http://www.w3.org/Graphics/SVG/1.1/DTD/svg11.dtd">
<svg version="1.1" id="Layer_1" xmlns="http://www.w3.org/2000/svg" xmlns:xlink="http://www.w3.org/1999/xlink" x="0px" y="0px"
	 width="400px" height="400px" viewBox="0 0 400 400" enable-background="new 0 0 400 400" xml:space="preserve">
<g>
	<path d="M370.1,138.1c-14.6-13.5-41-12.2-54.7-10.4v-22.5c0-3.8-3.1-6.9-6.9-6.9H112c-3.9,0-6.9,3.1-6.9,6.9v76.3
		c-14.1,3-24.8,15.2-25.3,29.9c-23.6,10.9-40.6,33.7-43,60.7h-9.8c-2,0-3.9,0.9-5.3,2.5c-1.3,1.6-1.9,3.6-1.5,5.6L38.7,388
		c0.6,3.3,3.5,5.7,6.8,5.7h34.1h0.8h98.1c3.3,0,6.2-2.4,6.8-5.7l4.7-27.1h129.6c3.8,0,6.9-3.1,6.9-6.9v-24.7h21.7
		c3.8,0,6.9-3,6.9-6.9c0-3.8-3.1-6.9-6.9-6.9h-28.6H197.8l1.9-11.1c3.5,0.3,7,0.6,10.5,0.6c46.2,0,85.6-29.9,99.6-71.5
		c6.2-0.8,62.3-9.4,69.7-64.8C381.2,155.7,378.1,145.4,370.1,138.1z M105.1,195.9c2.1-0.8,4.4-1.3,6.9-1.3c2.4,0,4.8,0.5,6.9,1.3
		c4.8,1.9,8.5,5.7,10.2,10.5c0.8,1.9,1.2,3.9,1.2,6.1c0,2.8-0.7,5.5-1.9,8c-1.2,2.6-3.2,4.7-5.5,6.4c-3,2.3-6.9,3.6-10.9,3.6
		c-0.8,0-1.7-0.1-2.4-0.1c-6.2-0.8-11.4-4.6-14.1-9.8c-1.2-2.4-1.9-5.1-1.9-8c0-2.1,0.4-4.2,1.1-6.1
		C96.5,201.6,100.3,197.8,105.1,195.9z M82.6,225.5c5.1,11.1,16.3,18.8,29.4,18.8c1,0,1.9-0.1,2.9-0.1c4.8-0.4,9.3-1.9,13.3-4.2
		c5.8-3.3,10.5-8.3,13.1-14.4c17.3,9.1,29.6,26.4,32,46.6h-18.6H134H50.6C53,251.8,65.3,234.6,82.6,225.5z M312.7,329.3v17.8H192.3
		l3-17.8H312.7z M183.7,315.5l-2.4,13.8l-3,17.8l-2.4,13.8l-3.3,19H85.8l-5.5-50.6l-0.9-8.3c-0.3-2.5-1.8-4.6-3.9-5.5
		c-1.1-0.6-2.4-0.8-3.7-0.6c-2.8,0.3-5,2.2-5.7,4.8c-0.1,0.3-0.2,0.6-0.3,0.8c-0.3,0.6-0.3,1.2-0.3,1.9c0,1,0.2,1.9,0.6,2.7l6,54.8
		H51.4l-16.2-94h8.2H150h30.1h0.5h8.2l-0.4,2.4l-2.4,13.7L183.7,315.5z M301.6,199.8c0,50.3-41,91.3-91.4,91.3
		c-2.8,0-5.5-0.1-8.2-0.4l1.8-10.5c0.3-2-0.2-4-1.5-5.6c-1.3-1.6-3.3-2.5-5.3-2.5h-9.8c-2.5-27-19.4-49.8-43-60.7
		c-0.4-14.7-11.1-26.9-25.2-29.9v-69.4h182.6V199.8z M365.8,166.7c-5.1,38.2-38.4,49.1-52.1,52c1.1-6.1,1.7-12.4,1.7-18.9v-58.1
		c12.7-1.8,35.2-2.8,45.3,6.5C365.2,152.4,366.9,158.4,365.8,166.7z"/>
	<path d="M155.4,48.5h20.9h68h20.9c1.3,0,3.6,2.8,3.6,7.3c0,4.5-2.4,7.3-3.6,7.3h-88.9c-3.8,0-6.9,3.1-6.9,6.9
		c0,3.8,3.1,6.9,6.9,6.9h88.9c9.8,0,17.5-9.3,17.5-21.1c0-11.9-7.7-21.1-17.5-21.1h-20.9h-68h-20.9c-1.3,0-3.6-2.8-3.6-7.3
		c0-4.5,2.4-7.3,3.6-7.3h88.9c3.8,0,6.9-3.1,6.9-6.9s-3.1-6.9-6.9-6.9h-88.9c-9.8,0-17.5,9.3-17.5,21.1
		C137.9,39.2,145.6,48.5,155.4,48.5z"/>
</g>
</svg>
