<?xml version="1.0" encoding="utf-8"?>
<!-- Generator: Adobe Illustrator 17.1.0, SVG Export Plug-In . SVG Version: 6.00 Build 0)  -->
<!DOCTYPE svg PUBLIC "-//W3C//DTD SVG 1.1//EN" "http://www.w3.org/Graphics/SVG/1.1/DTD/svg11.dtd">
<svg version="1.1" id="Layer_1" xmlns="http://www.w3.org/2000/svg" xmlns:xlink="http://www.w3.org/1999/xlink" x="0px" y="0px"
	 width="400px" height="400px" viewBox="0 0 400 400" enable-background="new 0 0 400 400" xml:space="preserve">
<g>
	<path d="M367.6,58.5h-23.9c-2.8-15.5-16.4-27.4-32.7-27.4H96c-16.3,0-29.9,11.9-32.7,27.4H34.3c-14.6,0-26.6,11.9-26.6,26.6
		c0,14.6,11.9,26.6,26.6,26.6h28.5v82.7c0,3.2,2.6,5.9,5.8,5.9h49v38.9v38.7v58.6v26c0,3.2,2.6,5.8,5.9,5.8c3.2,0,5.9-2.6,5.9-5.8
		v-20.2h12.2v20.2c0,3.2,2.6,5.8,5.9,5.8c3.2,0,5.9-2.6,5.9-5.8v-20.2h12.2v20.2c0,3.2,2.6,5.8,5.9,5.8c3.2,0,5.9-2.6,5.9-5.8v-20.2
		h12.2v20.2c0,3.2,2.6,5.8,5.9,5.8c3.2,0,5.9-2.6,5.9-5.8v-20.2h12.2v20.2c0,3.2,2.6,5.8,5.9,5.8c3.2,0,5.9-2.6,5.9-5.8v-20.2H237
		v20.2c0,3.2,2.6,5.8,5.9,5.8c3.2,0,5.9-2.6,5.9-5.8v-20.2h12.2v20.2c0,3.2,2.6,5.8,5.9,5.8c3.2,0,5.9-2.6,5.9-5.8v-20.2h12.2v20.2
		c0,3.2,2.6,5.8,5.9,5.8c3.2,0,5.9-2.6,5.9-5.8v-20.2h12.2v20.2c0,3.2,2.6,5.8,5.8,5.8c3.2,0,5.9-2.6,5.9-5.8v-20.2h12.2v20.2
		c0,3.2,2.6,5.8,5.9,5.8c3.2,0,5.8-2.6,5.8-5.8v-26c0,0,0,0,0,0V111.6h23.3c14.6,0,26.6-11.9,26.6-26.6
		C394.1,70.4,382.2,58.5,367.6,58.5z M310.9,42.8c11.9,0,21.6,9.7,21.6,21.6l0,0v0l0,0l0,168.9H129.3v-38.9v-88.5V64.4
		c0-1.9-0.2-3.8-0.5-5.6c-0.1-0.2-0.1-0.5-0.1-0.7c-0.3-1.7-0.8-3.4-1.4-5c-0.1-0.3-0.2-0.6-0.3-0.8c-0.6-1.6-1.3-3.1-2.2-4.5
		c-0.1-0.3-0.3-0.5-0.4-0.7c-0.9-1.4-1.8-2.8-2.9-4.1c0-0.1-0.1-0.1-0.1-0.2H310.9z M56.3,99.9c2.9-4.2,4.5-9.3,4.5-14.8
		c0-5.5-1.7-10.6-4.5-14.9h61.3v29.7H56.3z M129.3,244.9h203.2v27H129.3V244.9z M96,42.8c9.9,0,18.1,6.7,20.7,15.7H75.4
		C78,49.5,86.2,42.8,96,42.8z M19.4,85.1c0-8.2,6.7-14.9,14.8-14.9c8.2,0,14.9,6.7,14.9,14.9s-6.7,14.8-14.9,14.8
		C26.1,99.9,19.4,93.3,19.4,85.1z M74.5,188.5v-76.8h43.1v76.8H74.5z M129.3,330.6v-46.9h203.2v46.9H129.3z M367.6,99.9h-23.3V70.2
		h23.3c8.2,0,14.8,6.7,14.8,14.9S375.7,99.9,367.6,99.9z"/>
</g>
</svg>
