<?xml version="1.0" encoding="utf-8"?>
<!-- Generator: Adobe Illustrator 17.1.0, SVG Export Plug-In . SVG Version: 6.00 Build 0)  -->
<!DOCTYPE svg PUBLIC "-//W3C//DTD SVG 1.1//EN" "http://www.w3.org/Graphics/SVG/1.1/DTD/svg11.dtd">
<svg version="1.1" id="Layer_1" xmlns="http://www.w3.org/2000/svg" xmlns:xlink="http://www.w3.org/1999/xlink" x="0px" y="0px"
	 width="400px" height="400px" viewBox="0 0 400 400" enable-background="new 0 0 400 400" xml:space="preserve">
<g>
	<path d="M168.4,235.5c11.8-14.4,16.5-33.2,12.8-51.4L160.4,81.5c-0.6-3.2-3.5-5.5-6.7-5.5H85.3c-3.3,0-6.1,2.3-6.7,5.5L57.8,184.1
		c-3.7,18.2,1,36.9,12.8,51.4c10.5,12.9,25.6,20.9,42,22.7v120.6H72.3c-3.8,0-6.9,3.1-6.9,6.9c0,3.8,3.1,6.9,6.9,6.9h94.5
		c3.8,0,6.9-3.1,6.9-6.9c0-3.8-3.1-6.9-6.9-6.9h-40.4V258.2C142.8,256.4,157.9,248.4,168.4,235.5z M91,89.8h57.1l13.2,65.4H77.7
		L91,89.8z M81.2,226.8c-9.2-11.2-12.8-25.8-9.9-39.9l3.6-18h89.1l3.6,18c2.9,14.1-0.8,28.7-9.9,39.9c-9.4,11.5-23.3,18-38.3,18
		C104.6,244.8,90.6,238.2,81.2,226.8z"/>
	<path d="M315,128.5V14.3c0-3.8-3.1-6.9-6.9-6.9h-50.9c-3.8,0-6.9,3.1-6.9,6.9v114.2c-17.3,3.7-30.4,21.1-30.4,42v215.2
		c0,3.8,3.1,6.9,6.9,6.9h111.7c3.8,0,6.9-3.1,6.9-6.9V170.5C345.4,149.6,332.3,132.2,315,128.5z M301.3,21.2v30.2h-37.2V21.2H301.3z
		 M233.7,198.1h50.1v101.6h-50.1V198.1z M331.7,378.8h-97.9v-65.4h57c3.8,0,6.9-3.1,6.9-6.9V191.2c0-3.8-3.1-6.9-6.9-6.9h-57v-13.8
		c0-16,10.5-29,23.5-29c3.8,0,6.9-3.1,6.9-6.9V65.2h37.2v69.5c0,3.8,3.1,6.9,6.9,6.9c13,0,23.5,13,23.5,29V378.8z"/>
</g>
</svg>
